<svg id="Warstwa_1" data-name="Warstwa 1" xmlns="http://www.w3.org/2000/svg" viewBox="0 0 35.18 40.85"><defs><style>.cls-1,.cls-2{fill:none;stroke:#3c3c3b;stroke-linecap:round;stroke-linejoin:round;}.cls-1{stroke-width:1.16px;}.cls-2{stroke-width:1.17px;}</style></defs><path class="cls-1" d="M302.42,383.37V347.46a1.88,1.88,0,0,0-1.88-1.89H270.29a1.88,1.88,0,0,0-1.88,1.89v35.91a1.89,1.89,0,0,0,1.88,1.89h30.25A1.89,1.89,0,0,0,302.42,383.37Z" transform="translate(-267.83 -344.99)"/><path class="cls-1" d="M279.6,385v-9.78a1.56,1.56,0,0,0-1.56-1.56h-2.55a1.56,1.56,0,0,0-1.56,1.56V385" transform="translate(-267.83 -344.99)"/><path class="cls-2" d="M285.42,384.64v-9.17a1.54,1.54,0,0,1,1.55-1.55h8.23a1.55,1.55,0,0,1,1.56,1.55v9.79" transform="translate(-267.83 -344.99)"/><rect class="cls-1" x="6.25" y="6.25" width="5.67" height="5.67" rx="1.56"/><rect class="cls-1" x="14.75" y="6.25" width="5.67" height="5.67" rx="1.56"/><rect class="cls-1" x="23.26" y="6.09" width="5.67" height="5.67" rx="1.56"/><rect class="cls-1" x="6.25" y="17.59" width="5.67" height="5.67" rx="1.56"/><rect class="cls-1" x="14.75" y="17.59" width="5.67" height="5.67" rx="1.56"/><rect class="cls-1" x="23.26" y="17.43" width="5.67" height="5.67" rx="1.56"/></svg>