<svg id="Warstwa_1" data-name="Warstwa 1" xmlns="http://www.w3.org/2000/svg" viewBox="0 0 35.18 40.14"><defs><style>.cls-1,.cls-2{fill:none;stroke:#3c3c3b;stroke-linecap:round;stroke-linejoin:round;}.cls-1{stroke-width:1.16px;}.cls-2{stroke-width:1.17px;}</style></defs><path class="cls-1" d="M302.42,382.54V360.49a2.37,2.37,0,0,0-.84-1.81l-14.65-12.21a2.36,2.36,0,0,0-3,0l-14.65,12.21a2.35,2.35,0,0,0-.85,1.81v22.05a2.36,2.36,0,0,0,2.36,2.36h29.3A2.36,2.36,0,0,0,302.42,382.54Z" transform="translate(-267.83 -345.35)"/><path class="cls-1" d="M274.08,384.9h6.57V372.14a1.41,1.41,0,0,0-1.42-1.41H275.5a1.41,1.41,0,0,0-1.42,1.41Z" transform="translate(-267.83 -345.35)"/><rect class="cls-1" x="14.75" y="11.21" width="8.5" height="8.5" rx="1.42"/><path class="cls-2" d="M285.42,384.28V375a1.42,1.42,0,0,1,1.41-1.42h8.51a1.43,1.43,0,0,1,1.42,1.42v9.92" transform="translate(-267.83 -345.35)"/><path class="cls-1" d="M296.76,354.72v-5.25a1.42,1.42,0,0,0-1.42-1.42h0a1.42,1.42,0,0,0-1.42,1.42v2.41" transform="translate(-267.83 -345.35)"/></svg>