<?xml version="1.0" encoding="utf-8"?>
<!-- Generator: Adobe Illustrator 24.1.1, SVG Export Plug-In . SVG Version: 6.00 Build 0)  -->
<svg version="1.1" xmlns="http://www.w3.org/2000/svg" xmlns:xlink="http://www.w3.org/1999/xlink" width="240" height="240"
	 viewBox="0 0 841.9 595.3" style="enable-background:new 0 0 841.9 595.3;" xml:space="preserve">
<style type="text/css">
	.st0{display:none;}
	.st1{display:inline;fill:#936037;}
	.st2{fill:#2E57A3;}
	.st3{fill:#1F4798;}
	.st4{fill:#273061;}
	.st5{fill:#223C7D;}
	.st6{fill:#28366F;}
</style>
<g id="Warstwa_3" class="st0">
	<rect x="-2.7" y="-61" class="st1" width="870.7" height="614.7"/>
</g>
<g id="Warstwa_1" class="st0">
	
		<image style="display:inline;overflow:visible;" width="711" height="369" xlink:href="2F0154C8.jpg"  transform="matrix(1 0 0 1 64.9878 112.8902)">
	</image>
</g>
<g id="Warstwa_2">
	<g>
		<g>
			<path class="st2" d="M247.7,177.3c-8,0.1-16,0.2-23.9,0.2c-21.1,0-36.4,11.6-42.3,31.8c-5.8,20,2.8,41.9,20.5,52.1
				c6.2,3.6,12.9,5.1,20,5.1c25.1,0,50.3,0,75.4,0c1.6,0,3.3,0.2,4.9,0.4c2,6.9,6.1,13.5,4.2,21c-1.2,4.7-2.4,9.1,0.5,13.6
				c-10.9,0-21.7,0.1-32.6,0.1c-7.5,0.8-15,0.8-22.5,0c-2.5,0-4.9,0-7.4,0c-8.5,0.8-17.1,0.8-25.6,0c-2,0.2-4.1,0.5-6.1,0
				c-27.1-2.4-46.2-16.7-58.7-40c-18-33.3-11.1-79.3,20.6-104.2c12.7-10,27.2-15.3,43.4-15.3c67.4-0.1,134.8-0.1,202.3-0.1
				c1.5,0,3-0.2,4.4,0.6c-11.9,0.1-23.9,0.2-35.8,0.3c-11.8-0.1-23.6-0.1-35.4-0.2c-30.6,0-61.2,0-91.8,0c-1.6,0-3.5-0.8-4.6,0.9
				c-4.1,5.9-4.5,12.6-2.6,19.2c1.7,5.9,1.6,7.4-3.6,10.7C249.4,174.5,247.4,174.9,247.7,177.3z"/>
			<path class="st3" d="M247.7,177.3c-0.4-2.4,1.6-2.9,3.1-3.9c5.2-3.3,5.3-4.8,3.6-10.7c-1.9-6.6-1.5-13.3,2.6-19.2
				c1.1-1.6,3.1-0.9,4.6-0.9c30.6,0,61.2-0.1,91.8,0c11.8,0,23.6,0.1,35.4,0.2c0.8,0.8,1.8,0.7,2.8,0.7c10.3,0,20.6,0,30.9,0
				c1.1,0,2.4,0.2,3.2-1c8.4,1.9,13.8,7.9,14,15.5c0.3,9.7-4.1,15.9-12.9,18.5c-3.4,0.2-6.9-0.9-10.2,0.7c-3,0-6,0-9,0
				c-3-1.2-6-1.2-9,0c-37.3,0-74.6,0.1-112,0.1C273.7,177.5,260.7,177.4,247.7,177.3z"/>
			<path class="st4" d="M611.6,159.6c13.2,17.3,26.5,34.7,39.7,52c15.4,20.2,30.7,40.5,46,60.8c6.6,8.8,5.4,20.2-2.6,26.2
				c-8.2,6.1-19,4.2-25.8-4.8c-26.9-35.5-53.7-71-80.5-106.6c-4-5.3-8.3-9.8-14.8-11.6c0.4-3.9,3-4.7,5.2-2.3
				c2.3,2.6,5.1,4.6,7.2,7.4c1,1.4,1.7,4.1,3.7,3.3c2.1-0.8,4.2-2.4,5-5.1c1-3.6,1-7.2,0.9-10.8c-0.1-3.2,1.2-4.5,4.4-4.5
				C604.2,163.6,608.1,162.1,611.6,159.6z"/>
			<path class="st3" d="M409.6,204.8c9.1,2,15.4,9.4,14.9,17.8c-0.5,9.1-7.7,16.9-16.5,17c-42.1,0.1-84.2-0.1-126.3-0.1
				c-2.1-2.4-4.7-4.6-2.1-8.4c0.4-0.6-0.2-2.3-0.8-3.2c-2.5-4.1-2.4-8.5-1.7-13c0.7-4.8-3.3-9.1-8.2-9.3c-3.4-0.2-6.9,1.1-10.1-1
				c23.7,0,47.4,0,71.1,0.1c1.7,1.7,3.8,0.9,5.7,0.9c23.9,0.5,47.9-0.8,71.8,0.8C408.4,206.4,409.1,205.7,409.6,204.8z"/>
			<path class="st3" d="M307,301.6c-2.9-4.4-1.7-8.8-0.5-13.6c1.9-7.5-2.2-14.1-4.2-21c0,0,0.2,0,0.2,0c1.5,0.2,2.9,0.5,4.4,0.5
				c24.6,0,49.3,0,73.9,0c6.2,0,12.3,0.1,18.5-0.1c5.8-0.2,11.6,0.9,17.3-0.6c0.7,0,1.3,0,2,0c0.8,2.6,3,1.7,4.6,1.7
				c6.8,0.1,13.7,0.2,20.5,0c3.1-0.1,4.5,1.1,3.9,4.1c-1.5,7.4-0.7,14.8,0,22.2c0.4,4.2-1.5,5.7-5.9,5.8
				c-19.3,0.4-38.5-0.1-57.8,0.8C358.3,302.5,332.6,301.6,307,301.6z"/>
			<path class="st5" d="M307,301.6c25.6,0,51.3,0.9,76.9-0.2c19.3-0.9,38.6-0.4,57.8-0.8c4.3-0.1,6.3-1.5,5.9-5.8
				c-0.7-7.4-1.5-14.8,0-22.2c0.6-2.9-0.8-4.1-3.9-4.1c-6.8,0.2-13.7,0.1-20.5,0c-1.6,0-3.8,0.9-4.6-1.7c9-0.1,18-0.1,26.9-0.2
				c1.8,0,3.5,0.2,4.9-1.6c8.2-10.6,16.4-21.3,24.5-32c8.5-11.2,16.6-22.7,25.4-33.7c3.5,0.6,3.3-1.7,3-4c0,0,0,0,0,0
				c5.9-0.5,7.2-2.3,7-9.1c0,0,0,0,0,0c2.5,0.3,2.3-1.3,2.2-2.9c0,0-0.1,0.1-0.1,0.1c0.7-0.1,1-0.5,1-1.2c0,0-0.1,0.1-0.1,0.1
				c5.8,1.4,3.2-2.6,3.1-4.9c0,0,0,0,0,0c3.7,0.4,5.6,1.7,4.5,6.2c-1,3.9-1.2,8.2,2.3,11.6c2,1.9,2.5,4.5,2.4,7.3
				c-0.1,2.9-1.3,6.6,0.6,8.7c3.1,3.3,1.2,5.6-0.1,8.4c-0.7,1.3-1.6,2.5-1.4,4.2c0,0,0-0.1,0-0.1c-1,0.4-1.1,1.2-1.1,2.1
				c-0.3,0.3-0.5,0.7-0.8,1c-1.2,0.1-2.8-0.2-1.4,1.8c-15.6,23-33,44.8-49.8,67c-4,5.2-9.7,6.6-16,6.6
				c-56.3-0.1-112.6-0.1-168.9-0.1c-4.2,0-8.3-0.2-12.5-0.3C285.3,301.7,296.1,301.6,307,301.6z"/>
			<path class="st6" d="M524.7,223.7c-0.2-1.6,0.8-2.8,1.4-4.2c1.4-2.8,3.2-5.1,0.1-8.4c-1.9-2.1-0.7-5.8-0.6-8.7
				c0.1-2.8-0.4-5.4-2.4-7.3c-3.6-3.4-3.3-7.7-2.3-11.6c1.1-4.5-0.8-5.7-4.5-6.2c6.5-9.8,13.4-19.4,21.2-28.1
				c11.3-12.6,31-18.9,50.4-10.8c10.5,4.4,17.7,11.8,23.6,21c-3.5,2.5-7.4,4-11.7,4c-3.2,0-4.5,1.3-4.4,4.5
				c0.1,3.6,0.1,7.2-0.9,10.8c-0.8,2.8-2.9,4.3-5,5.1c-1.9,0.8-2.6-1.9-3.7-3.3c-2-2.8-4.9-4.8-7.2-7.4c-2.2-2.4-4.8-1.7-5.2,2.3
				c-8.3-0.7-14.1,2.9-18.9,9.5c-8.7,12.1-17.9,23.8-26.9,35.7C526.9,221.8,526.3,223.2,524.7,223.7z"/>
			<path class="st2" d="M258.7,204.6c3.2,2.1,6.8,0.8,10.1,1c4.9,0.3,8.9,4.5,8.2,9.3c-0.7,4.5-0.8,8.9,1.7,13
				c0.6,0.9,1.2,2.6,0.8,3.2c-2.6,3.8,0,6,2.1,8.4c-19.6,0.1-39.3,0.3-58.9,0.1c-8.7-0.1-16-8.3-16.1-17.2
				c-0.1-9.3,7.1-17.5,16.6-17.8C235.1,204.2,246.9,204.5,258.7,204.6z"/>
			<path class="st6" d="M559.4,281.6c-8.1-4.2-11.6-11.4-11.3-20c0.3-9.9,5.5-17.1,14.8-20.5c8.9-3.2,17-1.6,23.8,5.3
				c0.4,1.2,0.7,2.5,1.2,3.7c2.1,5.3,4.5,10.9,1.9,16.4c-1.5,3.2-2.1,5.9-1.1,9.2c0,0,0.1-0.1,0.1-0.1c-4.1-0.7-4.9,1.8-5.1,5
				c0,0,0,0,0,0c-3.5-1.5-5.6,2-8.8,2.3C569.6,283.5,564.6,282.1,559.4,281.6z"/>
			<path class="st5" d="M426.3,353.3c4.6-10.6,8.8-20.4,13-30.1c0.6-1.4,1.2-2.7,2.1-3.9c0.8-1.1,2-1.2,3.1-0.5
				c1.3,0.7,1.3,1.7,0.7,3c-5.4,12.1-10.6,24.3-16.1,36.3c-1.4,3.1-4.5,3.1-5.9,0c-5.4-11.9-10.6-23.9-15.8-35.9
				c-0.6-1.3-1-2.6,0.7-3.4c2.3-1,3.4,0.5,4.2,2.3c3.5,8,7,16.1,10.5,24.2C423.8,347.6,424.9,350,426.3,353.3z"/>
			<path class="st6" d="M542.7,358c0,0.9,0,2-1,2c-0.7,0-1.8-0.4-2.1-0.9c-1.3-2.3-2.4-4.7-3.3-7.2c-0.9-2.3-2.3-3.3-4.9-3.2
				c-4.3,0.2-8.7,0.4-13,0c-3.7-0.3-5.5,1.2-6.6,4.5c-0.7,2-1.6,4-2.6,5.9c-0.5,0.9-1.4,1.4-2.5,0.7c-1.1-0.7-1-1.4-0.5-2.5
				c1.1-2.4,2.2-4.8,3.2-7.3c4-9.6,7.9-19.2,11.9-28.9c0.5-1.2,1-2.5,2.6-2.7c1.7-0.2,2.3,1.1,2.9,2.3c5.2,12,10.5,24,15.7,35.9
				C542.4,357.2,542.5,357.7,542.7,358z M523.9,323.6c-2.8,6.6-5.4,12.5-7.8,18.4c-0.9,2.2-0.8,3.8,2.4,3.6c4-0.2,8-0.1,11.9,0
				c2.2,0.1,2.6-0.9,1.9-2.7C529.6,336.7,526.9,330.6,523.9,323.6z"/>
			<path class="st4" d="M599.3,356.7c-3.5,3.5-7.7,4.4-12.3,3c-4.2-1.3-6.3-4.3-6.1-8.6c0.2-4,2.8-6.2,6.8-6.7
				c2.5-0.3,5-0.4,7.4-0.9c1.7-0.4,4.8,1.8,4.8-2.2c0-3.4-0.9-6.4-5-6.8c-3-0.3-5.9,0.1-8.7,1.5c-1.1,0.6-2.6,1.6-3.4-0.2
				c-0.7-1.6,0.9-2.2,2.1-2.9c10-5.7,18.7-0.9,18.7,10.4c0,4.3,0,8.6,0,13c0,1.4,0.6,3.3-1.3,3.8
				C599.7,360.7,600.2,358.1,599.3,356.7z M594.5,346.4c-1.6,0.2-3.6,0.3-5.6,0.7c-2.3,0.4-4.1,1.9-4.1,4.3
				c-0.1,2.3,1.2,4.1,3.3,5.1c3.6,1.8,8,0.3,10.4-3.4c1.2-1.9,2-4.2,1-6.1C598.7,345.5,596.4,346.6,594.5,346.4z"/>
			<path class="st2" d="M402.6,322.6c-5.4,1.1-10.9,0.4-16.4,0.4c-2.8,0-3.7,0.8-3.7,3.7c-0.2,10-0.3,10,9.8,10.1
				c2.7,0,5.3,0.2,8,0.3c-5.1,1.4-10.5-0.1-16.2,1c2.9,1,5.4,0.4,7.8,0.6c3.5,0.2,7.3-0.9,10.3,2c-6.5,1.9-13.1-0.1-19.6,1
				c-2.7,1.2-2.7,2.5-0.2,4c1,3.2-1.5,7.8,1.4,9.6c2.4,1.5,6.4,0.2,9.7,0.4c3.3,0.2,6.8-1.1,10,0.9c-0.7,0.2-0.8,1.5-1.9,0.9
				c-3.6-1.8-7.2-0.6-10.9,0c2.9,0.1,5.9,0.3,8.8,0.4c-4.1,0.7-8.3,0.7-12.4,0.7c-3.2,0-6.6,0.6-9.3-2c-0.2-0.3-0.2-0.6,0-0.9
				c1.6-1.3,1-3,1-4.6c0.1-8.6,0.2-17.2-0.1-25.7c-0.1-2,2.1-3.9,0.1-5.8c4.6-1.6,9.2-0.7,13.8-0.5c-3.1,1.7-6.8-0.3-11.3,1.8
				c4.4,0,7.5,0.2,10.6-0.1c2.8-0.2,6,1.4,8.3-1.6c0,0,0,0.1,0,0.1c-0.3,0.8,3.7,2.3-0.4,2.4c-5.7,0-11.3,0-17,0c0,0.4,0,0.8,0,1.1
				C389.4,322.6,396,322.6,402.6,322.6z M381,347.3c0,3.3,0,5.2,0,7C381.7,352.4,381.9,350.4,381,347.3z"/>
			<path class="st4" d="M565.2,346.8c0-2.5-0.1-5,0-7.5c0.1-2.7,0.4-5.6-3.8-4.9c-0.8,0.1-1.7-0.2-1.7-1.3c-0.1-1.3,0.8-1.8,1.9-1.7
				c3.2,0.5,3.7-1.3,4-4c0.6-5.7,4.9-9.1,10.6-9c0.9,0,2.2-0.4,2.4,1c0.2,1.5-0.9,2-2.2,2.1c-3.9,0.3-6.5,2.1-7.2,6.2
				c-0.5,2.4-0.3,4,2.7,3.7c1.2-0.1,2.3,0,3.5,0c1,0,2.2,0.3,2.2,1.5c0,1.2-1.1,1.5-2.2,1.5c-0.7,0-1.3,0.1-2,0
				c-4-0.7-4.7,1.3-4.5,4.8c0.3,5.8,0.1,11.6,0.1,17.4c0,1.4,0.5,3.4-1.7,3.4c-2.1,0-1.9-1.9-2-3.3
				C565.1,353.4,565.1,350.1,565.2,346.8C565.1,346.8,565.2,346.8,565.2,346.8z"/>
			<path class="st5" d="M483.5,322.5c-11.8,1.2-14.2,11-13.5,19.7c0.1,1.5,0.4,2.9,0.6,4.4c-1.1,3.1,2.1,5.1,2,8l0,0
				c-0.9,0-1.8,0-2.7,0c-9.7-11.1-6-29.9,6.7-34.9C478.8,320.9,480.7,323,483.5,322.5z"/>
			<path class="st2" d="M264.7,335.4c6.5,0,10.9,4.9,11,12.2c0.1,7.5-4.4,12.5-11.2,12.5c-6.6,0-10.9-4.8-10.9-12.2
				C253.5,340.4,257.9,335.4,264.7,335.4z M272.9,347.7c0-6.4-3.2-10.2-8.4-10.1c-5.2,0.1-8.2,4-8.1,10.4c0.1,6.2,3,9.6,8.2,9.7
				C270,357.8,272.9,354.3,272.9,347.7z"/>
			<path class="st6" d="M472.6,354.5c0.1-2.8-3.1-4.9-2-8c4.8,8.5,10.4,10.9,20.3,8.9c2.7-0.6,4.1-1.7,3.7-4.6
				c-0.2-1.1-0.2-2.3,0-3.5c0.5-3.7-0.6-5.5-4.7-5c-1.6,0.2-3.7,1-5.1-0.9c3.1-0.1,6.3,0.1,9.4-0.4c2.7-0.4,3.5,0.8,3.3,2.9
				c-0.5,4.8,2.2,10.4-2.9,14.3c0.3,0.1,0.6,0.2,0.9,0.3c-9.2,2.8-18.1,3.7-25.6-4C470.8,354.5,471.7,354.5,472.6,354.5
				c0.1,0.1,0.3,0.2,0.4,0.2C472.9,354.7,472.8,354.6,472.6,354.5z"/>
			<path class="st2" d="M212.1,359c-3.7-0.5-4.4-3.3-5.4-5.5c-2-4.4-5.6-4-9.3-3.8c-1.7,0.1-1.5,1.4-1.5,2.5c0,2.4,0,4.8-0.5,7.3
				c-1.8-1.9-1.1-4.2-1.2-6.4c-0.2-2.7,0-5.3,0-8c0-9.8,2.3-11.6,11.8-9.2c2.4,0.6,4.4,1.8,5,4.3c0.6,2.6,0.9,5.6-1.7,7.3
				c-2.5,1.5-1.9,2.7-0.6,4.6C209.9,354.3,210.9,356.7,212.1,359z M200.9,347.4c2.8,0,5.4,0.4,7.1-2c2-2.7,0.5-6.7-2.9-7.3
				c-3-0.5-6.8-1.7-8.8,0.5c-1.3,1.5-0.9,5.2-0.2,7.6C196.7,348.6,199.5,346.9,200.9,347.4z"/>
			<path class="st2" d="M353.3,339.6c-2.4,0.5-3.9-1.6-6-1.8c-3.3-0.2-6.7,0-7.5,3.9c-0.8,3.9,2.5,4.4,5.3,5.1
				c1.8,0.4,3.5,0.9,5.3,1.4c2.5,0.8,4,2.6,4,5.1c0.1,2.7-1.2,5-3.8,5.9c-4.9,1.7-9.7,1.5-13.9-2c0.4-1.9,1.3-1.6,2.3-1.1
				c0.7,0.4,1.5,0.8,2.2,1.1c5,1.6,10.1,0.3,10.3-2.8c0.4-5.3-4.3-4.5-7.4-5.3c-3.5-1-6.9-2-7.1-6.4c-0.1-3.9,2.2-6.1,5.8-7
				C347.5,334.6,351.3,336,353.3,339.6z"/>
			<path class="st6" d="M456.1,339.1c0,5.8,0,11.6,0,17.4c0,1.7,0,3.6-2.3,3.6c-2.4,0.1-2.4-1.7-2.4-3.5c0-11.5,0-22.9,0-34.4
				c0-1.8-0.4-4,2.5-3.8c2.5,0.1,2.1,2.1,2.2,3.7C456,327.8,456,333.4,456.1,339.1C456,339.1,456.1,339.1,456.1,339.1z M453,357.8
				c0.3,0,0.7,0,1,0c0-12.1,0-24.3,0-36.4c-0.3,0-0.7,0-1,0C453,333.6,453,345.7,453,357.8z"/>
			<path class="st2" d="M231.9,355.1c4.3,1.5,7.1,3,10.3,2.7c2.6-0.3,5.1-0.6,5.6-3.8c0.4-3.2-2.2-3.7-4.4-4.3
				c-1.9-0.5-3.9-0.8-5.8-1.4c-2.6-0.8-4.2-2.8-4.3-5.5c-0.1-2.8,1.1-5.1,3.9-6.4c4.6-2.2,10-0.9,12.5,3.4c-2.6-0.8-4.9-1.8-7.2-2.1
				c-3-0.3-5.9,0.5-6.5,3.9c-0.7,3.6,2,4.4,4.8,5c2.1,0.5,4.3,0.9,6.2,1.8c4.3,2,4.9,6.6,1.4,9.7
				C244.5,361.5,236.4,360.6,231.9,355.1z"/>
			<path class="st2" d="M188.5,360.5c-2-4.6-4.4-7-9.9-7.4c-6.1-0.4-7.1,4.1-10,7.2c-0.4-0.3-0.7-0.6-1.1-1c3.2-7.3,6.3-14.7,9.6-22
				c0.8-1.8,2.5-2,3.3-0.1c3.3,7.3,6.5,14.6,9.7,22C189.5,359.6,189,360.1,188.5,360.5z M178.8,338.9c-2,4.6-3.6,8.2-5.3,12.1
				c3.7,0,6.8,0,10.4,0C182.3,347,180.8,343.5,178.8,338.9z"/>
			<path class="st5" d="M333.4,359.9c-2.9-3.4-4.6-6.9-10.4-6.8c-5.7,0-7,3.8-9.5,7.2c-0.4-0.3-0.7-0.7-1.1-1
				c3.2-7.3,6.3-14.7,9.6-22c0.7-1.7,2.1-1.6,3,0C328.8,344.3,330.8,352,333.4,359.9z M323.6,338.9c-1.9,4.5-5,8.2-4.3,11.9
				c0.3,1.8,5.6,0.5,8.6,0.5c0.2,0,0.4-0.4,0.8-0.8C327.1,347,325.5,343.3,323.6,338.9z"/>
			<path class="st2" d="M280.8,340.5c-0.1-1.6-1.2-3.8,0.6-4.5c1.9-0.8,2.5,1.8,3.4,3c3.8,4.8,7.4,9.8,11.6,15.3
				c2.1-6.5-0.2-12.6,1.5-18.3c1.8,0.1,1.7,1.2,1.7,2.2c0,6.3,0,12.6,0,18.9c0,0.9,0.5,2.2-0.8,2.5c-1.1,0.3-1.8-0.6-2.4-1.4
				c-3.5-4.7-6.9-9.4-10.5-13.9c-0.9-1.1-1.1-3.3-3.4-2.8C282,341.1,281.4,340.8,280.8,340.5z"/>
			<path class="st4" d="M550.4,339c0-5.6,0-11.3,0-16.9c0-1.3-0.8-3.4,1.5-3.5c2.4-0.2,1.7,2,1.7,3.3c0,11.6,0,23.2,0,34.8
				c0,1.4,0.5,3.5-1.7,3.3c-2.1-0.1-1.5-2.2-1.5-3.6C550.4,350.6,550.4,344.8,550.4,339z"/>
			<path class="st4" d="M693.2,324.3c0.9-2.1-0.5-4.4,2.8-6.7c0,6.3,0.3,11.6-0.1,16.9c-0.2,2.4-8.4,1.8-10.2-0.8
				c-1.7-2.4-1.8-5-0.3-7.4C687.2,322.9,690,323.1,693.2,324.3z M693.6,328.8c-0.1-1.5-0.7-3.2-3.4-3.2c-2.6,0.1-3.4,2-3.5,4
				c-0.1,2.3,1,4.2,3.8,4C693.1,333.4,693.6,331.6,693.6,328.8z"/>
			<path class="st6" d="M483.5,322.5c-2.9,0.5-4.7-1.6-6.9-2.8c6.8-2.4,13.4-2,19.6,1.8c1.3,0.8,3.2,1.9,2,3.9
				c-1.3,2.1-2.9,0.8-4.3,0C490.8,323.2,487.2,322.8,483.5,322.5z"/>
			<path class="st2" d="M617.5,331.8c2.5-3.9,3.2-7.8,5.8-10.9c-0.1,0.1,0,0,0.1,0c-0.1,0.1-0.2,0.2-0.2,0.2
				c1.3,5.4-2.4,9.2-4.3,13.6c-0.8,1.8-2.3,1-3-0.4c-2.1-4.5-4.2-9-6.2-13.5c-0.3-0.7-0.5-1.7,0.6-2c1.1-0.3,1.4,0.7,1.8,1.4
				C613.8,323.8,615.5,327.5,617.5,331.8z"/>
			<path class="st5" d="M667.3,322.8c1.3,4.3,0.9,7.8,0.7,11.1c-0.2,3-3.2,0.9-4.8,1.8c-1.7,0.9-3.9,0.1-4.8-2.2
				c-0.3-0.7-0.7-1.6-0.6-2.4c0.3-2.5-1.2-6.9,1-7c3-0.2,1.1,3.9,1.6,6.1c0.3,1.6,0.1,3.5,2.6,3.3c2-0.2,2.6-1.5,2.8-3.4
				C665.9,328,664.8,325.6,667.3,322.8z"/>
			<path class="st4" d="M588.7,275.7c-1-3.2-0.4-5.9,1.1-9.2c2.5-5.5,0.1-11.1-1.9-16.4c-0.5-1.2-0.8-2.5-1.2-3.7
				C595,255.1,595.8,266.8,588.7,275.7z"/>
			<path class="st5" d="M409.6,204.8c-0.6,0.8-1.2,1.6-2.4,1.5c-23.9-1.6-47.9-0.3-71.8-0.8c-1.9,0-4,0.8-5.7-0.9
				C356.4,204.4,383,204,409.6,204.8z"/>
			<path class="st2" d="M634.3,320.5c-4.9,1-5.1,4.7-4.6,8.5c0.8,6.3,6.1,3.9,10.8,4.7c-3.5,3.1-6.5,2.8-9.5,1.4
				c-3.6-1.7-5.5-6.6-4.1-10.7c1.6-4.4,4.5-6.9,9.5-5.8C636.1,319.7,633.4,318.1,634.3,320.5z"/>
			<path class="st6" d="M671.5,328.9c-1.9-5.3,2.4-5.2,6.2-5.3c4.7-0.1,4.4,3.5,4.6,6.7c0.1,1.2,0,2.3,0,3.5c0,0.9-0.5,1.8-1.4,1.8
				c-0.9,0-1.4-0.8-1.4-1.8c0-1.7,0-3.3,0-5c0-1.5,0-3.1-2.2-3.1c-2.1-0.1-3,1.1-3.2,3c-0.2,1.5-0.1,3-0.2,4.5c0,1,0,2.3-1.3,2.3
				c-1.4,0.1-1.2-1.3-1.2-2.2C671.5,332,671.5,330.8,671.5,328.9z"/>
			<path class="st2" d="M147.8,345.6c-1.5,4.6,2.2,7.4,4.3,10.3c2.1,2.9,6,2.3,9.3,1.3c1.3-0.4,2.3-1.9,4.1-1.3
				c-2.5,4.2-8.6,5.6-13.3,3.1C147.3,356.5,145.4,350.4,147.8,345.6L147.8,345.6z"/>
			<path class="st2" d="M380.8,267.5c-24.6,0-49.3,0-73.9,0c-1.5,0-2.9-0.3-4.4-0.5c0.3-0.1,0.6-0.4,0.9-0.4
				c25.8,0,51.5,0.1,77.3,0.2C380.8,267.1,380.8,267.3,380.8,267.5z"/>
			<path class="st4" d="M495.6,358.5c-0.3-0.1-0.6-0.2-0.9-0.3c5.1-3.9,2.4-9.4,2.9-14.3c0.2-2.1-0.6-3.3-3.3-2.9
				c-3.1,0.5-6.3,0.3-9.4,0.4c-1.1-1.2-0.7-2.1,0.5-2.8c0.5-0.3,1.3-0.2,2-0.2c11.6-1,11.6-1,11.6,10.7c0,2,0,4,0,6
				C498.9,357.3,497.9,358.5,495.6,358.5z"/>
			<path class="st2" d="M147.8,345.6c-1.4-5.7,3-10.3,9.8-10.2c3.6,0,5.6,1,7.8,3.9c-0.6,0.5-1.2,0.4-1.8,0.2
				c-8.5-3.2-9.8-2.8-14.3,4.8C149,344.9,148.3,345.2,147.8,345.6C147.8,345.6,147.8,345.6,147.8,345.6z"/>
			<path class="st4" d="M360.2,335.8c0,7.9,0,15.9,0,23.8c-0.3,0-0.7,0-1,0c0-7.9,0-15.8,0-23.8
				C359.5,335.9,359.9,335.8,360.2,335.8z"/>
			<path class="st5" d="M650.7,327.5c-1-1.7-2.7-3.2-0.3-5.4c0.8-0.7,0.7-2.8,2.3-2.5c2,0.4,0.3,1.8,0.4,2.7c0.1,2,2.4,0.5,3.2,2.1
				c-5.5,1.6-2.3,6.6-3.7,10c-0.6-0.3-1.2-0.7-1.9-1c0-0.6,0-1.3,0-1.9C653.3,330.2,653.3,328.8,650.7,327.5z"/>
			<path class="st4" d="M559.4,281.6c5.2,0.4,10.2,1.9,15.6,1.4c3.2-0.3,5.3-3.8,8.8-2.3C575.8,286.2,567.7,286.5,559.4,281.6z"/>
			<path class="st5" d="M216.8,357.5c0-7.2,0-14.4,0-21.6c0.6,0,1.3,0,1.9-0.1c0,7.2,0,14.4,0,21.6
				C218.1,357.5,217.4,357.5,216.8,357.5z"/>
			<path class="st5" d="M377.7,356.5c2.7,2.6,6.1,2,9.3,2c4.1,0,8.2,0,12.4-0.7c-2.9-0.1-5.9-0.3-8.8-0.4c3.7-0.5,7.3-1.8,10.9,0
				c1.1,0.6,1.2-0.7,1.9-0.9c1.1,2.4,0,3.3-2.3,3.3c-6.9,0-13.8-0.1-20.7,0C378.1,359.8,377.2,358.7,377.7,356.5z"/>
			<path class="st2" d="M216.8,357.5c0.6,0,1.3-0.1,1.9-0.1c4.1,0.6,8.4-0.4,12.5,1.4c-4.6,1.4-9.2,1.2-13.8,0.8
				C216.5,359.5,216.6,358.4,216.8,357.5z"/>
			<path class="st5" d="M378.7,319.4c2,1.9-0.2,3.8-0.1,5.8c0.3,8.6,0.2,17.2,0.1,25.7c0,1.6,0.6,3.3-1,4.6
				c-0.1-11-0.1-22.1-0.1-33.1C377.6,321.3,377.3,320,378.7,319.4z"/>
			<path class="st5" d="M425.7,142.7c-0.8,1.1-2,1-3.2,1c-10.3,0-20.6,0-30.9,0c-1,0-2,0.1-2.8-0.7c11.9-0.1,23.9-0.2,35.8-0.3
				C425,142.6,425.3,142.6,425.7,142.7z"/>
			<path class="st5" d="M280.8,340.5c0.6,0.3,1.2,0.7,1.8,1c0,6,0,12,0,18.1c-0.6,0-1.2,0-1.8,0
				C280.8,353.2,280.8,346.9,280.8,340.5z"/>
			<path class="st5" d="M380.8,267.5c0-0.2,0-0.5-0.1-0.7c12,0,23.9,0,35.9,0c-5.7,1.5-11.5,0.5-17.3,0.6
				C393.1,267.7,387,267.5,380.8,267.5z"/>
			<path class="st6" d="M510.4,186.3c0.3,6.9-1,8.6-7,9.1C505.1,191.9,507.5,188.9,510.4,186.3z"/>
			<path class="st5" d="M402.6,322.6c-6.6,0-13.3,0-19.9,0c0-0.4,0-0.8,0-1.1c5.7,0,11.3,0,17,0c4.1,0,0.1-1.6,0.4-2.4
				c0.7-0.1,1.3-0.1,2-0.2c0.4,0.2,0.8,0.4,1.2,0.5C404.2,320.7,404.3,321.8,402.6,322.6z"/>
			<path class="st5" d="M400.1,319c-2.3,2.9-5.5,1.3-8.3,1.6c-3.1,0.3-6.2,0.1-10.6,0.1c4.5-2,8.1,0,11.3-1.8
				C395.1,318.9,397.6,318.9,400.1,319z"/>
			<path class="st5" d="M402.1,340.5c-3-2.8-6.8-1.7-10.3-2c-2.4-0.1-4.9,0.5-7.8-0.6c5.7-1.1,11,0.4,16.2-1
				C402.8,337.1,403.3,338.4,402.1,340.5z"/>
			<path class="st5" d="M634.3,320.5c-0.9-2.4,1.8-0.8,2.1-1.9c1.8,0.3,3.9,0.2,4.1,3.1C638.3,321.3,636.3,320.9,634.3,320.5z"/>
			<path class="st4" d="M583.7,280.7c0.2-3.2,1-5.7,5.1-5C587.7,278,585.9,279.6,583.7,280.7z"/>
			<path class="st6" d="M516.4,177.4c0.1,2.4,2.7,6.3-3.1,4.9C514.4,180.7,515.4,179.1,516.4,177.4z"/>
			<path class="st2" d="M416.7,177.4c3.3-1.6,6.8-0.5,10.2-0.7C423.5,178.3,420.1,177.5,416.7,177.4z"/>
			<path class="st5" d="M244.5,301.7c2.5,0,5,0,7.4,0C249.4,302.1,246.9,302.1,244.5,301.7z"/>
			<path class="st2" d="M398.7,177.4c3-1.2,6-1.2,9,0C404.6,177.4,401.6,177.4,398.7,177.4z"/>
			<path class="st6" d="M650.7,327.5c2.6,1.3,2.6,2.7,0,4C650.7,330.2,650.7,328.8,650.7,327.5z"/>
			<path class="st5" d="M212.7,301.7c2,0.5,4.1,0.2,6.1,0C216.8,301.7,214.8,301.7,212.7,301.7z"/>
			<path class="st6" d="M503.4,195.4c0.3,2.3,0.5,4.6-3,4C501.1,197.9,501.9,196.3,503.4,195.4z"/>
			<path class="st5" d="M382.3,345.5c-2.6-1.4-2.5-2.8,0.2-4C382.4,342.9,382.4,344.2,382.3,345.5z"/>
			<path class="st6" d="M512.5,183.4c0.2,1.6,0.3,3.3-2.2,2.9C510.5,184.9,511.3,184.1,512.5,183.4z"/>
			<path class="st6" d="M650.7,333.4c0.6,0.3,1.2,0.7,1.9,1c-0.1,0.8-0.5,1.2-1.3,1C650.2,335.1,650.6,334.2,650.7,333.4z"/>
			<path class="st6" d="M521.5,228.6c-1.5-2.1,0.2-1.7,1.4-1.8C522.5,227.3,522,227.9,521.5,228.6z"/>
			<path class="st6" d="M523.7,225.7c0-0.9,0-1.8,1.1-2.1C524.6,224.4,524.7,225.4,523.7,225.7z"/>
			<path class="st2" d="M403.4,319.4c-0.4-0.2-0.8-0.4-1.2-0.5C402.8,318.7,403.3,318.6,403.4,319.4z"/>
			<path class="st6" d="M513.4,182.3c0,0.7-0.3,1.1-1,1.2C512.7,183.1,513.1,182.7,513.4,182.3z"/>
			<path class="st5" d="M381,347.3c0.9,3.1,0.8,5.1,0,7C381,352.5,381,350.6,381,347.3z"/>
			<path class="st5" d="M472.6,354.5c0.1,0.1,0.3,0.2,0.4,0.2C472.9,354.7,472.8,354.6,472.6,354.5
				C472.6,354.5,472.6,354.5,472.6,354.5z"/>
			<path class="st5" d="M453,357.8c0-12.1,0-24.3,0-36.4c0.3,0,0.7,0,1,0c0,12.1,0,24.3,0,36.4C453.6,357.8,453.3,357.8,453,357.8z"
				/>
		</g>
	</g>
</g>
</svg>
