<?xml version="1.0" encoding="utf-8"?>
<!-- Generator: Adobe Illustrator 24.1.1, SVG Export Plug-In . SVG Version: 6.00 Build 0)  -->
<svg version="1.1" id="Warstwa_1" xmlns="http://www.w3.org/2000/svg" xmlns:xlink="http://www.w3.org/1999/xlink" x="0px" y="0px"
	 viewBox="0 0 595.3 841.9" style="enable-background:new 0 0 595.3 841.9;" xml:space="preserve">
<style type="text/css">
	.st0{fill:#374151;}
	.st1{fill:#0684C7;}
	.st2{fill:#089488;}
</style>
<g>
	<path class="st0" d="M130.4,146.2c0,0.4-0.2,0.8-0.6,1c-3,1.4-6.2,2.1-9.6,2.1c-4.9,0-8.7-1.4-11.4-4.2c-2.7-2.8-4-6.8-4-12.1
		c0-5.2,1.4-9.2,4.1-12.1s6.6-4.3,11.6-4.3c2.6,0,5.7,0.4,9.1,1.2c0.5,0.1,0.8,0.5,0.8,1v1.8c0,0.7-0.7,1.2-1.4,1
		c-3.7-1.2-6.6-1.8-8.7-1.8c-3.4,0-6.1,1.1-8,3.4c-1.9,2.3-2.8,5.5-2.8,9.7c0,4,1,7.1,3,9.4s4.8,3.4,8.3,3.4c2.5,0,5.3-0.7,8.1-2
		c0.7-0.3,1.5,0.2,1.5,1V146.2z"/>
	<path class="st0" d="M137,147.4v-29c0-0.6,0.5-1.1,1.1-1.1h8.5c3,0,5.4,0.7,7,2s2.4,3.2,2.4,5.7c0,2-0.6,3.7-1.7,5.3
		c-0.9,1.2-2.1,2.3-3.6,3c-0.6,0.3-0.7,1-0.4,1.5l8.6,11.8c0.5,0.7,0,1.7-0.9,1.7h-2.9c-0.3,0-0.7-0.2-0.9-0.5l-8.4-12.2
		c-0.2-0.3-0.5-0.5-0.9-0.5h-2.6c-0.6,0-1.1,0.5-1.1,1.1v11c0,0.6-0.5,1.1-1.1,1.1H138C137.4,148.4,137,148,137,147.4z M141.4,130.9
		c0,0.6,0.5,1.1,1.1,1.1h0.4c2.8,0,4.9-0.6,6.3-1.7c1.4-1.1,2.2-2.7,2.2-4.9c0-3.2-2.4-4.8-7.1-4.8h-1.8c-0.6,0-1.1,0.5-1.1,1.1
		V130.9z"/>
	<path class="st0" d="M164.7,147.4v-29c0-0.6,0.5-1.1,1.1-1.1h15.6c0.6,0,1.1,0.5,1.1,1.1v1.2c0,0.6-0.5,1.1-1.1,1.1h-11.1
		c-0.6,0-1.1,0.5-1.1,1.1v7.9c0,0.6,0.5,1.1,1.1,1.1h9c0.6,0,1.1,0.5,1.1,1.1v1.1c0,0.6-0.5,1.1-1.1,1.1h-9c-0.6,0-1.1,0.5-1.1,1.1
		v9.1c0,0.6,0.5,1.1,1.1,1.1h12c0.6,0,1.1,0.5,1.1,1.1v1.2c0,0.6-0.5,1.1-1.1,1.1h-16.5C165.2,148.4,164.7,148,164.7,147.4z"/>
	<path class="st0" d="M188.5,147.4v-29c0-0.6,0.5-1.1,1.1-1.1h9.5c3.1,0,5.7,0.3,7.6,1c1.9,0.7,3.6,1.8,5,3.5
		c2.2,2.6,3.4,6,3.4,10.3c0,4.8-1.3,8.7-3.9,11.7c-1.4,1.6-3.1,2.8-5,3.5c-1.9,0.7-4.2,1.1-7,1.1h-9.5
		C188.9,148.4,188.5,148,188.5,147.4z M192.9,144.1c0,0.6,0.5,1.1,1.1,1.1h4.7c4.1,0,7-1.1,8.7-3.3c1.8-2.3,2.8-5.4,2.8-9.3
		c0-3.7-0.9-6.5-2.7-8.6c-1.1-1.3-2.4-2.1-3.9-2.6s-3.8-0.7-6.9-0.7H194c-0.6,0-1.1,0.5-1.1,1.1V144.1z"/>
	<path class="st0" d="M221.3,147.4v-29c0-0.6,0.5-1.1,1.1-1.1h2.4c0.6,0,1.1,0.5,1.1,1.1v29c0,0.6-0.5,1.1-1.1,1.1h-2.4
		C221.7,148.4,221.3,148,221.3,147.4z"/>
	<path class="st0" d="M241.5,147.4v-25.7c0-0.6-0.5-1.1-1.1-1.1h-9.1c-0.6,0-1.1-0.5-1.1-1.1v-1.2c0-0.6,0.5-1.1,1.1-1.1h24.9
		c0.6,0,1.1,0.5,1.1,1.1v1.2c0,0.6-0.5,1.1-1.1,1.1H247c-0.6,0-1.1,0.5-1.1,1.1v25.7c0,0.6-0.5,1.1-1.1,1.1h-2.4
		C241.9,148.4,241.5,148,241.5,147.4z"/>
</g>
<g>
	<path class="st0" d="M293.7,147.4v-29c0-0.6,0.5-1.1,1.1-1.1h7.6c2.5,0,4.4,0.2,5.7,0.6c1.3,0.4,2.5,1.1,3.3,2.1
		c1.1,1.3,1.7,3.1,1.7,5.4c0,3.3-1.1,5.9-3.4,7.8c-2.3,1.9-5.5,2.8-9.5,2.8h-0.9c-0.6,0-1.1,0.5-1.1,1.1v10.2c0,0.6-0.5,1.1-1.1,1.1
		h-2.3C294.2,148.4,293.7,148,293.7,147.4z M298.2,131.7c0,0.6,0.5,1.1,1.1,1.1h0.8c2.7,0,4.7-0.6,6.2-1.8c1.5-1.2,2.2-2.9,2.2-5.1
		c0-1.8-0.6-3.2-1.7-4c-1.1-0.8-3.1-1.2-5.7-1.2h-1.7c-0.6,0-1.1,0.5-1.1,1.1V131.7z"/>
	<path class="st0" d="M314.8,147l11.7-29c0.2-0.4,0.5-0.7,1-0.7h3c0.4,0,0.8,0.3,1,0.7l11.5,29c0.3,0.7-0.2,1.4-1,1.4h-2.6
		c-0.4,0-0.8-0.3-1-0.7l-2.9-7.3c-0.2-0.4-0.5-0.7-1-0.7h-12c-0.4,0-0.8,0.3-1,0.7l-3,7.3c-0.2,0.4-0.5,0.7-1,0.7h-1.9
		C315,148.4,314.5,147.7,314.8,147z M324.7,136.5h7.7c0.7,0,1.3-0.8,1-1.4l-4.2-10.5c-0.2-0.5-1-0.5-1.2,0l-4.2,10.5
		C323.5,135.8,324,136.5,324.7,136.5z"/>
	<path class="st0" d="M355.7,147.4v-25.7c0-0.6-0.5-1.1-1.1-1.1h-9.1c-0.6,0-1.1-0.5-1.1-1.1v-1.2c0-0.6,0.5-1.1,1.1-1.1h24.9
		c0.6,0,1.1,0.5,1.1,1.1v1.2c0,0.6-0.5,1.1-1.1,1.1h-9.1c-0.6,0-1.1,0.5-1.1,1.1v25.7c0,0.6-0.5,1.1-1.1,1.1h-2.4
		C356.2,148.4,355.7,148,355.7,147.4z"/>
	<path class="st0" d="M375.9,147.4v-29c0-0.6,0.5-1.1,1.1-1.1h8.5c3,0,5.4,0.7,7,2c1.6,1.3,2.4,3.2,2.4,5.7c0,2-0.6,3.7-1.7,5.3
		c-0.9,1.2-2.1,2.3-3.6,3c-0.6,0.3-0.7,1-0.4,1.5l8.6,11.8c0.5,0.7,0,1.7-0.9,1.7h-2.9c-0.3,0-0.7-0.2-0.9-0.5l-8.4-12.2
		c-0.2-0.3-0.5-0.5-0.9-0.5h-2.6c-0.6,0-1.1,0.5-1.1,1.1v11c0,0.6-0.5,1.1-1.1,1.1H377C376.4,148.4,375.9,148,375.9,147.4z
		 M380.4,130.9c0,0.6,0.5,1.1,1.1,1.1h0.4c2.8,0,4.9-0.6,6.3-1.7s2.2-2.7,2.2-4.9c0-3.2-2.4-4.8-7.1-4.8h-1.8
		c-0.6,0-1.1,0.5-1.1,1.1V130.9z"/>
	<path class="st0" d="M416.6,149.2c-4.5,0-8.1-1.5-10.8-4.4c-2.7-3-4-6.9-4-11.9c0-5,1.3-8.9,4-11.9c2.7-3,6.3-4.4,10.8-4.4
		s8.1,1.5,10.8,4.4c2.7,3,4,6.9,4,11.9c0,5-1.3,8.9-4,11.9C424.7,147.7,421.1,149.2,416.6,149.2z M416.6,145.9
		c3.2,0,5.6-1.2,7.4-3.5c1.8-2.3,2.7-5.5,2.7-9.6c0-4.1-0.9-7.3-2.7-9.5c-1.8-2.3-4.2-3.4-7.4-3.4s-5.6,1.1-7.4,3.4
		c-1.8,2.3-2.7,5.5-2.7,9.5c0,4.1,0.9,7.3,2.7,9.6C411,144.8,413.5,145.9,416.6,145.9z"/>
	<path class="st0" d="M437.7,147.4v-29c0-0.6,0.5-1.1,1.1-1.1h2.8c0.4,0,0.7,0.2,0.9,0.5l14.5,21.7c0.4,0.5,1.2,0.3,1.2-0.4v-20.8
		c0-0.6,0.5-1.1,1.1-1.1h1.7c0.6,0,1.1,0.5,1.1,1.1v29c0,0.6-0.5,1.1-1.1,1.1h-2.8c-0.4,0-0.7-0.2-0.9-0.5l-14.5-21.7
		c-0.4-0.5-1.2-0.3-1.2,0.4v20.8c0,0.6-0.5,1.1-1.1,1.1h-1.7C438.2,148.4,437.7,148,437.7,147.4z"/>
</g>
<path class="st1" d="M274.3,131.4h-0.4c-3.8,0-6.9-3.1-6.9-6.9v-0.4c0-3.8,3.1-6.9,6.9-6.9h0.4c3.8,0,6.9,3.1,6.9,6.9v0.4
	C281.1,128.4,278,131.4,274.3,131.4z"/>
<path class="st2" d="M274.2,148.4h-0.4c-3.8,0-6.9-3.1-6.9-6.9v-0.4c0-3.8,3.1-6.9,6.9-6.9h0.4c3.8,0,6.9,3.1,6.9,6.9v0.4
	C281.1,145.3,278,148.4,274.2,148.4z"/>
</svg>
